<svg width="13" height="13" viewBox="0 0 13 13" fill="none" xmlns="http://www.w3.org/2000/svg">
<g id="fi-rr-alarm-clock" clip-path="url(#clip0_18_18)">
<path id="Vector" d="M7.0417 1.11095V0.541663C7.0417 0.398004 6.98463 0.260229 6.88305 0.158647C6.78146 0.0570645 6.64369 -3.8147e-06 6.50003 -3.8147e-06C6.35637 -3.8147e-06 6.2186 0.0570645 6.11701 0.158647C6.01543 0.260229 5.95836 0.398004 5.95836 0.541663V1.11095C4.86786 1.20872 3.82551 1.60561 2.94615 2.25789C2.06679 2.91017 1.38454 3.79254 0.974587 4.80776C0.564632 5.82299 0.442873 6.93168 0.622726 8.01168C0.802579 9.09168 1.27706 10.1011 1.9939 10.9287C1.71081 11.0687 1.47425 11.2876 1.3127 11.559C1.15115 11.8304 1.07151 12.1427 1.08336 12.4583C1.08336 12.602 1.14043 12.7398 1.24201 12.8413C1.3436 12.9429 1.48137 13 1.62503 13C1.76869 13 1.90646 12.9429 2.00805 12.8413C2.10963 12.7398 2.1667 12.602 2.1667 12.4583C2.16219 12.2914 2.22213 12.1291 2.33408 12.0051C2.44603 11.8812 2.60139 11.8051 2.76795 11.7926C2.8052 11.7855 2.84154 11.7743 2.87628 11.759C3.91386 12.5638 5.18965 13.0006 6.50274 13.0006C7.81583 13.0006 9.09162 12.5638 10.1292 11.759C10.1609 11.7736 10.1939 11.7853 10.2278 11.7937C10.3949 11.8051 10.5512 11.8806 10.664 12.0044C10.7769 12.1282 10.8375 12.2909 10.8334 12.4583C10.8334 12.602 10.8904 12.7398 10.992 12.8413C11.0936 12.9429 11.2314 13 11.375 13C11.5187 13 11.6565 12.9429 11.758 12.8413C11.8596 12.7398 11.9167 12.602 11.9167 12.4583C11.9286 12.1427 11.8489 11.8304 11.6874 11.559C11.5258 11.2876 11.2892 11.0687 11.0062 10.9287C11.723 10.1011 12.1975 9.09168 12.3773 8.01168C12.5572 6.93168 12.4354 5.82299 12.0255 4.80776C11.6155 3.79254 10.9333 2.91017 10.0539 2.25789C9.17455 1.60561 8.1322 1.20872 7.0417 1.11095ZM1.62503 7.04166C1.62503 6.07748 1.91094 5.13495 2.44661 4.33326C2.98229 3.53157 3.74366 2.90673 4.63445 2.53775C5.52524 2.16877 6.50544 2.07223 7.45109 2.26033C8.39675 2.44844 9.26539 2.91274 9.94717 3.59452C10.629 4.2763 11.0933 5.14494 11.2814 6.0906C11.4695 7.03626 11.3729 8.01645 11.0039 8.90724C10.635 9.79803 10.0101 10.5594 9.20843 11.0951C8.40674 11.6307 7.46421 11.9167 6.50003 11.9167C5.20758 11.9151 3.96852 11.401 3.05463 10.4871C2.14073 9.57317 1.62661 8.33411 1.62503 7.04166Z" fill="white" fill-opacity="0.57"/>
<path id="Vector_2" d="M10.408 -6.69109e-06C10.2643 -6.69109e-06 10.1266 0.0570616 10.025 0.158644C9.9234 0.260226 9.86633 0.398001 9.86633 0.54166C9.86633 0.685319 9.9234 0.823094 10.025 0.924676C10.1266 1.02626 10.2643 1.08333 10.408 1.08333C10.5969 1.06897 10.7867 1.09301 10.9661 1.154C11.1454 1.215 11.3105 1.31168 11.4515 1.43822C11.5925 1.56476 11.7063 1.71853 11.7863 1.89027C11.8662 2.06201 11.9105 2.24816 11.9165 2.43749C11.9165 2.58115 11.9736 2.71893 12.0752 2.82051C12.1768 2.92209 12.3145 2.97916 12.4582 2.97916C12.6019 2.97916 12.7396 2.92209 12.8412 2.82051C12.9428 2.71893 12.9999 2.58115 12.9999 2.43749C12.9929 2.10626 12.92 1.77974 12.7854 1.47703C12.6507 1.17431 12.4571 0.901492 12.2157 0.674522C11.9744 0.447553 11.6902 0.270993 11.3798 0.155172C11.0694 0.0393517 10.739 -0.0134034 10.408 -6.69109e-06Z" fill="white" fill-opacity="0.57"/>
<path id="Vector_3" d="M1.08333 2.43749C1.08937 2.24816 1.13369 2.06201 1.21361 1.89027C1.29354 1.71853 1.40742 1.56476 1.54838 1.43822C1.68935 1.31168 1.85448 1.215 2.03382 1.154C2.21316 1.09301 2.40299 1.06897 2.59188 1.08333C2.73553 1.08333 2.87331 1.02626 2.97489 0.924676C3.07647 0.823094 3.13354 0.685319 3.13354 0.54166C3.13354 0.398001 3.07647 0.260226 2.97489 0.158644C2.87331 0.0570616 2.73553 -6.69109e-06 2.59188 -6.69109e-06C2.26084 -0.0134034 1.93046 0.0393517 1.62006 0.155172C1.30966 0.270993 1.02548 0.447553 0.784131 0.674522C0.542786 0.901492 0.349129 1.17431 0.21449 1.47703C0.0798499 1.77974 0.0069313 2.10626 0 2.43749C0 2.58115 0.0570683 2.71893 0.158651 2.82051C0.260233 2.92209 0.398008 2.97916 0.541667 2.97916C0.685326 2.97916 0.823101 2.92209 0.924683 2.82051C1.02627 2.71893 1.08333 2.58115 1.08333 2.43749Z" fill="white" fill-opacity="0.57"/>
<path id="Vector_4" d="M7.04177 6.27575V3.79167C7.04177 3.64801 6.9847 3.51023 6.88312 3.40865C6.78154 3.30707 6.64376 3.25 6.5001 3.25C6.35644 3.25 6.21867 3.30707 6.11709 3.40865C6.0155 3.51023 5.95844 3.64801 5.95844 3.79167V6.5C5.95847 6.64365 6.01555 6.7814 6.11714 6.88296L7.74214 8.50796C7.8443 8.60663 7.98113 8.66122 8.12315 8.65999C8.26518 8.65876 8.40103 8.60179 8.50146 8.50136C8.60189 8.40093 8.65886 8.26507 8.66009 8.12305C8.66133 7.98103 8.60673 7.8442 8.50806 7.74204L7.04177 6.27575Z" fill="white" fill-opacity="0.57"/>
</g>
<defs>
<clipPath id="clip0_18_18">
<rect width="13" height="13" fill="white"/>
</clipPath>
</defs>
</svg>
