<svg width="13" height="13" viewBox="0 0 13 13" fill="none" xmlns="http://www.w3.org/2000/svg">
<g id="fi-rr-map-marker-home" clip-path="url(#clip0_21_19)">
<path id="Vector" d="M6.50007 -3.8147e-06C5.31982 2.29324e-05 4.16616 0.350571 3.18541 1.00718C2.20467 1.66379 1.44102 2.59688 0.991321 3.6881C0.541624 4.77933 0.426139 5.97953 0.659513 7.13648C0.892886 8.29343 1.4646 9.35501 2.30215 10.1866L4.43795 12.1588C4.98692 12.6962 5.72398 12.998 6.49218 13C7.26038 13.002 7.99903 12.7041 8.55082 12.1696L10.7132 10.1714C11.5464 9.33813 12.1138 8.27647 12.3437 7.12069C12.5736 5.96491 12.4556 4.76692 12.0047 3.6782C11.5537 2.58948 10.7901 1.65893 9.81025 1.00422C8.83044 0.349504 7.67849 3.35923e-05 6.50007 -3.8147e-06V-3.8147e-06ZM9.96241 9.39087L7.8044 11.3847C7.44957 11.7191 6.97995 11.9044 6.49244 11.9026C6.00492 11.9008 5.5367 11.7119 5.18436 11.375L3.0529 9.4055C2.48602 8.83861 2.0677 8.14067 1.83498 7.37349C1.60226 6.60631 1.56234 5.79359 1.71875 5.0073C1.87515 4.221 2.22306 3.48542 2.73165 2.8657C3.24024 2.24598 3.89381 1.76126 4.63448 1.45446C5.37515 1.14766 6.18005 1.02827 6.97789 1.10684C7.77573 1.18542 8.54187 1.45955 9.20846 1.90494C9.87504 2.35034 10.4215 2.95325 10.7994 3.66028C11.1773 4.36731 11.3751 5.15663 11.3751 5.95833C11.3775 6.59535 11.2539 7.22655 11.0114 7.81564C10.769 8.40472 10.4125 8.94006 9.96241 9.39087ZM9.05132 4.15079L7.42632 3.02358C7.15407 2.83545 6.83099 2.73469 6.50007 2.73469C6.16915 2.73469 5.84607 2.83545 5.57382 3.02358L3.94882 4.15079C3.73319 4.30038 3.557 4.49997 3.43531 4.73249C3.31362 4.96502 3.25007 5.22356 3.25007 5.486V7.3125C3.25007 7.67164 3.39274 8.01608 3.6467 8.27004C3.90065 8.52399 4.24509 8.66666 4.60424 8.66666H8.39591C8.75505 8.66666 9.09949 8.52399 9.35345 8.27004C9.6074 8.01608 9.75007 7.67164 9.75007 7.3125V5.486C9.75008 5.22356 9.68652 4.96502 9.56483 4.73249C9.44315 4.49997 9.26695 4.30038 9.05132 4.15079ZM8.66674 7.3125C8.66674 7.38433 8.6382 7.45321 8.58741 7.504C8.53662 7.5548 8.46773 7.58333 8.39591 7.58333H7.58341V6.5C7.58341 6.35634 7.52634 6.21856 7.42475 6.11698C7.32317 6.0154 7.1854 5.95833 7.04174 5.95833H5.9584C5.81475 5.95833 5.67697 6.0154 5.57539 6.11698C5.47381 6.21856 5.41674 6.35634 5.41674 6.5V7.58333H4.60424C4.53241 7.58333 4.46352 7.5548 4.41273 7.504C4.36194 7.45321 4.3334 7.38433 4.3334 7.3125V5.486C4.33337 5.39849 4.35455 5.31227 4.39511 5.23473C4.43567 5.15719 4.49442 5.09063 4.56632 5.04075L6.19132 3.91354C6.28217 3.85107 6.38982 3.81763 6.50007 3.81763C6.61032 3.81763 6.71798 3.85107 6.80882 3.91354L8.43382 5.04075C8.50572 5.09063 8.56447 5.15719 8.60503 5.23473C8.6456 5.31227 8.66677 5.39849 8.66674 5.486V7.3125Z" fill="white" fill-opacity="0.57"/>
</g>
<defs>
<clipPath id="clip0_21_19">
<rect width="13" height="13" fill="white"/>
</clipPath>
</defs>
</svg>
