<svg width="35" height="35" viewBox="0 0 35 35" fill="none" xmlns="http://www.w3.org/2000/svg">
<g id="Group 3148">
<rect id="Rectangle 1707" opacity="0.6" x="0.5" y="0.5" width="34" height="34" rx="7.5" stroke="white"/>
<g id="Iconly/Light-Outline/Notification" opacity="0.8">
<g id="Notification">
<path id="Combined-Shape" fill-rule="evenodd" clip-rule="evenodd" d="M15.9214 23.5419C16.2959 23.9591 16.7768 24.1883 17.2757 24.1883H17.2764C17.7775 24.1883 18.2605 23.9591 18.6358 23.5412C18.8368 23.3192 19.1795 23.3011 19.4015 23.5014C19.6242 23.7017 19.6423 24.0451 19.442 24.2671C18.8577 24.9157 18.0891 25.2729 17.2764 25.2729H17.275C16.4644 25.2722 15.6972 24.915 15.1152 24.2664C14.9149 24.0444 14.933 23.7009 15.1557 23.5014C15.3784 23.3004 15.7211 23.3185 15.9214 23.5419ZM17.3117 9.72711C20.5257 9.72711 22.6847 12.2303 22.6847 14.568C22.6847 15.7704 22.9906 16.2802 23.3153 16.821C23.6363 17.3547 24 17.9606 24 19.1059C23.7476 22.0321 20.6927 22.2707 17.3117 22.2707C13.9307 22.2707 10.875 22.0321 10.6256 19.1522C10.6234 17.9606 10.9871 17.3547 11.3081 16.821L11.4215 16.6303C11.7005 16.1507 11.9386 15.629 11.9386 14.568C11.9386 12.2303 14.0977 9.72711 17.3117 9.72711ZM17.3117 10.8117C14.7846 10.8117 13.0232 12.7914 13.0232 14.568C13.0232 16.0712 12.606 16.7661 12.2373 17.3792C11.9415 17.8716 11.708 18.2607 11.708 19.1059C11.8287 20.4696 12.7289 21.1862 17.3117 21.1862C21.8691 21.1862 22.7975 20.4378 22.9176 19.0589C22.9154 18.2607 22.6819 17.8716 22.3861 17.3792C22.0174 16.7661 21.6002 16.0712 21.6002 14.568C21.6002 12.7914 19.8388 10.8117 17.3117 10.8117Z" fill="white"/>
</g>
</g>
</g>
</svg>
