<svg width="35" height="35" viewBox="0 0 35 35" fill="none" xmlns="http://www.w3.org/2000/svg">
<g id="Iconly/Light-Outline/Setting" opacity="0.8">
<g id="Setting">
<g id="Group 3167">
<rect id="Rectangle 1707" opacity="0.6" x="0.5" y="0.5" width="34" height="34" rx="7.5" stroke="white"/>
<path id="Combined-Shape" fill-rule="evenodd" clip-rule="evenodd" d="M18.4325 10C18.9509 10 19.4547 10.2128 19.8159 10.5827C20.1764 10.9548 20.3755 11.4652 20.3603 11.9828C20.3617 12.0993 20.4001 12.234 20.4696 12.352C20.5847 12.5474 20.7664 12.685 20.9821 12.7414C21.1979 12.795 21.4237 12.766 21.6155 12.6524C22.5421 12.1232 23.7214 12.4403 24.2506 13.3596L24.7015 14.1407C24.7131 14.1617 24.7233 14.182 24.732 14.203C25.2112 15.1086 24.8912 16.2487 24.0008 16.7692C23.8712 16.8438 23.7663 16.948 23.6939 17.074C23.5817 17.2687 23.5505 17.5004 23.607 17.7132C23.6649 17.9304 23.8032 18.1106 23.9979 18.2221C24.4373 18.4747 24.7653 18.9004 24.8963 19.3919C25.0273 19.8827 24.9556 20.4155 24.7001 20.8549L24.2194 21.6556C23.6903 22.5648 22.511 22.8797 21.5938 22.3498C21.4715 22.2796 21.3303 22.2412 21.1899 22.2376H21.1856C20.9763 22.2376 20.7613 22.3266 20.605 22.4823C20.4464 22.6408 20.3596 22.8522 20.361 23.0766C20.356 24.14 19.4909 25 18.4325 25H17.5255C16.4621 25 15.597 24.1357 15.597 23.0722C15.5956 22.9412 15.5579 22.8051 15.4877 22.6871C15.3741 22.4888 15.1902 22.3469 14.9781 22.2904C14.7674 22.234 14.5365 22.2651 14.3468 22.3751C13.8922 22.6285 13.3573 22.69 12.8679 22.5525C12.3793 22.4142 11.9572 22.0783 11.7097 21.6331L11.2572 20.8535C10.728 19.9356 11.0429 18.7592 11.9594 18.2293C12.2193 18.0795 12.3807 17.8001 12.3807 17.5004C12.3807 17.2007 12.2193 16.9205 11.9594 16.7707C11.0422 16.2379 10.728 15.0586 11.2565 14.1407L11.7473 13.335C12.2692 12.4272 13.4492 12.1073 14.3693 12.6357C14.4945 12.7103 14.6306 12.7479 14.7689 12.7494C15.2199 12.7494 15.597 12.3773 15.6043 11.9198C15.6014 11.4152 15.8004 10.9309 16.1631 10.5654C16.5272 10.2005 17.0108 10 17.5255 10H18.4325ZM18.4325 11.0859H17.5255C17.3011 11.0859 17.0912 11.1734 16.9326 11.3313C16.7748 11.4898 16.6887 11.7004 16.6901 11.9249C16.6749 12.9832 15.8098 13.8352 14.7624 13.8352C14.4265 13.8316 14.1029 13.7411 13.822 13.5732C13.4275 13.3488 12.9121 13.487 12.6811 13.8888L12.1911 14.6945C11.9666 15.084 12.1042 15.5987 12.5038 15.831C13.0967 16.1742 13.4666 16.8141 13.4666 17.5004C13.4666 18.1866 13.0967 18.8258 12.5023 19.1697C12.1049 19.3999 11.9674 19.9117 12.1976 20.3098L12.6544 21.0974C12.7673 21.3009 12.9519 21.4478 13.1654 21.5079C13.3783 21.5672 13.6128 21.5419 13.8083 21.4333C14.0956 21.2647 14.4301 21.1771 14.766 21.1771C14.9317 21.1771 15.0975 21.1981 15.2597 21.2415C15.749 21.3732 16.174 21.7004 16.4259 22.1399C16.5895 22.4157 16.68 22.7378 16.6829 23.0665C16.6829 23.537 17.0608 23.9141 17.5255 23.9141H18.4325C18.8951 23.9141 19.273 23.5392 19.2752 23.0766C19.2723 22.5655 19.4721 22.0798 19.8376 21.7142C20.1981 21.3537 20.702 21.1373 21.2058 21.1517C21.5359 21.1597 21.8537 21.2487 22.1339 21.408C22.5371 21.6389 23.0518 21.5014 23.2849 21.1032L23.7655 20.3019C23.8727 20.1173 23.9038 19.8856 23.8466 19.6721C23.7902 19.4585 23.6483 19.2732 23.4572 19.1639C23.0098 18.9062 22.6905 18.4907 22.5581 17.9926C22.427 17.504 22.4987 16.9705 22.7542 16.5311C22.9207 16.2415 23.1647 15.9975 23.4572 15.8296C23.8495 15.6001 23.9871 15.0869 23.759 14.6873C23.7496 14.6713 23.7409 14.6547 23.7337 14.6373L23.3095 13.9018C23.0786 13.5001 22.5646 13.3618 22.1614 13.5913C21.7256 13.849 21.2073 13.9228 20.7092 13.7918C20.2119 13.663 19.7949 13.3481 19.5351 12.9036C19.3686 12.6256 19.2781 12.302 19.2752 11.9726C19.2817 11.7251 19.1948 11.5028 19.037 11.3399C18.8799 11.1778 18.6591 11.0859 18.4325 11.0859ZM17.9822 15.0486C19.3337 15.0486 20.4333 16.1489 20.4333 17.5004C20.4333 18.852 19.3337 19.9508 17.9822 19.9508C16.6307 19.9508 15.5311 18.852 15.5311 17.5004C15.5311 16.1489 16.6307 15.0486 17.9822 15.0486ZM17.9822 16.1344C17.2293 16.1344 16.6169 16.7476 16.6169 17.5004C16.6169 18.2533 17.2293 18.865 17.9822 18.865C18.7351 18.865 19.3475 18.2533 19.3475 17.5004C19.3475 16.7476 18.7351 16.1344 17.9822 16.1344Z" fill="white"/>
</g>
</g>
</g>
</svg>
