<svg width="9" height="15" viewBox="0 0 9 15" fill="none" xmlns="http://www.w3.org/2000/svg">
<path id="Vector" d="M6.88656 14.7032L0.21769 8.05409C0.138535 7.97493 0.0823343 7.88918 0.0490889 7.79683C0.0158435 7.70449 -0.000515336 7.60554 1.23681e-05 7.5C1.23681e-05 7.39446 0.0166351 7.29551 0.0498804 7.20317C0.0831258 7.11082 0.139062 7.02507 0.21769 6.94591L6.88656 0.277045C7.07125 0.0923482 7.30212 0 7.57917 0C7.85621 0 8.09368 0.0989446 8.29157 0.296834C8.48946 0.494723 8.5884 0.725594 8.5884 0.989446C8.5884 1.2533 8.48946 1.48417 8.29157 1.68206L2.47363 7.5L8.29157 13.3179C8.47627 13.5026 8.56861 13.7303 8.56861 14.0011C8.56861 14.2718 8.46967 14.5058 8.27178 14.7032C8.07389 14.9011 7.84302 15 7.57917 15C7.31532 15 7.08445 14.9011 6.88656 14.7032Z" fill="black" fill-opacity="0.87"/>
</svg>
