<svg width="17" height="18" viewBox="0 0 17 18" fill="none" xmlns="http://www.w3.org/2000/svg">
<g id="Iconly/Light-Outline/Volume-Off">
<g id="Volume-Off">
<path id="Combined-Shape" fill-rule="evenodd" clip-rule="evenodd" d="M16.7865 0.223897C17.0712 0.522426 17.0712 1.00537 16.7865 1.3039L11.4793 6.87057L11.4757 6.87438L4.85153 13.8231L4.8455 13.8281L1.24461 17.6058C1.10278 17.7556 0.916269 17.83 0.729754 17.83C0.543239 17.83 0.356725 17.7556 0.214896 17.6058C-0.0697332 17.3073 -0.0697332 16.8244 0.214896 16.5258L2.79792 13.8163C2.13889 13.7836 1.58054 13.6933 0.94444 13.1231C0.0876386 12.3547 0.00510584 10.8295 0 9.48407L0.000209829 9.04356L0.00118126 8.79597L0.000209829 8.5494L9.7143e-07 8.10886C0.00511555 6.76331 0.0877357 5.23736 0.945412 4.46984C1.66427 3.8249 2.28016 3.80044 3.05827 3.76988C3.27296 3.76071 3.51485 3.75154 3.7985 3.7281C4.04233 3.6955 4.7505 3.08418 5.21873 2.6807C6.58457 1.49983 8.45651 -0.1161 10.207 0.972055C10.2391 0.990394 10.2692 1.01281 10.2974 1.03726C11.1362 1.75347 11.4682 2.85031 11.6074 4.57542L15.7568 0.223897C16.0414 -0.0746323 16.5019 -0.0746323 16.7865 0.223897ZM10.97 10.1039C11.3722 10.11 11.6947 10.4564 11.6888 10.8782C11.6519 13.889 11.4266 15.5936 10.2968 16.5564C10.2676 16.5798 10.2385 16.6023 10.2074 16.6206C9.79553 16.8763 9.37782 16.9803 8.96885 16.9803C7.9877 16.9803 7.0561 16.3842 6.36541 15.8595C6.03901 15.6129 5.96615 15.1351 6.20124 14.7938C6.43827 14.4514 6.89387 14.373 7.2193 14.6226C8.49479 15.5895 9.06987 15.5253 9.41862 15.3338C9.98399 14.805 10.1987 13.6149 10.2317 10.8579C10.2375 10.436 10.5319 10.108 10.97 10.1039ZM8.96651 2.15089C8.12525 2.15089 7.04405 3.08418 6.14451 3.86056C5.27993 4.60637 4.59799 5.19528 3.91313 5.25233C3.60713 5.27679 3.34484 5.28799 3.11364 5.29716C2.39576 5.32467 2.2141 5.34301 1.89158 5.63237C1.45153 6.02668 1.45541 7.60389 1.45736 8.54533L1.45833 8.79597L1.45736 9.04763C1.45541 9.98907 1.45153 11.5663 1.89158 11.9606C2.2209 12.2561 2.40741 12.2744 3.14279 12.3009C3.36524 12.309 3.61685 12.3182 3.9073 12.3396C3.99085 12.3457 4.07633 12.36 4.16376 12.3824L10.2235 6.02668C10.1526 3.75969 9.93406 2.74285 9.4192 2.25991C9.27931 2.18451 9.12777 2.15089 8.96651 2.15089Z" fill="black" fill-opacity="0.87"/>
</g>
</g>
</svg>
